<svg width="101" height="45" viewBox="0 0 84 28" fill="none" xmlns="http://www.w3.org/2000/svg">
<path d="M42.0179 15.944H31.9321C32.075 16.8297 32.475 17.544 33.1036 18.0582C33.7321 18.5725 34.5321 18.8582 35.5321 18.8582C36.7036 18.8582 37.7036 18.4582 38.5607 17.6297L41.1893 18.8582C40.5321 19.8011 39.7321 20.4868 38.8179 20.944C37.9036 21.4011 36.8179 21.6297 35.5321 21.6297C33.5607 21.6297 31.9893 21.0011 30.7321 19.7725C29.5036 18.544 28.875 17.0011 28.875 15.1154C28.875 13.2011 29.5036 11.6297 30.7321 10.3725C31.9607 9.11539 33.5036 8.48682 35.3607 8.48682C37.3321 8.48682 38.9321 9.11539 40.1607 10.3725C41.3893 11.6297 42.0179 13.2868 42.0179 15.3725V15.944ZM38.9036 13.4868C38.7036 12.8011 38.275 12.2297 37.675 11.8011C37.075 11.3725 36.3607 11.144 35.5607 11.144C34.675 11.144 33.9321 11.4011 33.2464 11.8868C32.8464 12.2011 32.4464 12.744 32.1036 13.5154H38.9036V13.4868Z" fill="#0D1019"/>
<path d="M44.1499 8.8011H47.2928V10.0868C48.007 9.48682 48.6356 9.05824 49.2356 8.82967C49.807 8.6011 50.407 8.48682 51.007 8.48682C52.2356 8.48682 53.2928 8.91539 54.1499 9.77253C54.8642 10.5154 55.2356 11.6011 55.2356 13.0297V21.2868H52.1499V15.8297C52.1499 14.344 52.0928 13.344 51.9499 12.8582C51.807 12.3725 51.5785 12.0011 51.2642 11.744C50.9213 11.4868 50.5213 11.3725 50.0356 11.3725C49.407 11.3725 48.8642 11.5725 48.407 12.0011C47.9499 12.4297 47.6356 13.0011 47.4642 13.7725C47.3785 14.1725 47.3213 15.0011 47.3213 16.3154V21.3154H44.1785V8.8011H44.1499Z" fill="#0D1019"/>
<path d="M64.1498 8.48682C65.3212 8.48682 66.4355 8.77253 67.4641 9.37253C68.4926 9.97253 69.3212 10.7725 69.8926 11.7725C70.4641 12.7725 70.7784 13.8868 70.7784 15.0582C70.7784 16.2297 70.4926 17.344 69.8926 18.3725C69.3212 19.4011 68.5212 20.2011 67.4926 20.7725C66.4641 21.344 65.3784 21.6297 64.1498 21.6297C62.3498 21.6297 60.8355 21.0011 59.5498 19.7154C58.2926 18.4297 57.6355 16.8868 57.6355 15.0582C57.6355 13.1154 58.3498 11.4868 59.7784 10.1725C61.0641 9.02967 62.5212 8.48682 64.1498 8.48682ZM64.1784 11.4297C63.2069 11.4297 62.4069 11.7725 61.7498 12.4582C61.0926 13.144 60.7784 14.0011 60.7784 15.0582C60.7784 16.144 61.0926 17.0297 61.7498 17.6868C62.3784 18.3725 63.2069 18.6868 64.1784 18.6868C65.1498 18.6868 65.9784 18.344 66.6355 17.6582C67.2926 16.9725 67.6069 16.0868 67.6069 15.0297C67.6069 13.944 67.2926 13.0868 66.6355 12.4297C66.0069 11.7725 65.1784 11.4297 64.1784 11.4297Z" fill="#0D1019"/>
<path d="M73.6928 4.20068H76.8356V8.80068H78.6928V11.4864H76.8356V21.2864H73.6928V11.4864H72.0928V8.80068H73.6928V4.20068Z" fill="#0D1019"/>
<path d="M82.0932 18.0298C82.5789 18.0298 83.0075 18.2012 83.3789 18.5441C83.7218 18.8869 83.8932 19.3155 83.8932 19.8012C83.8932 20.2869 83.7218 20.7155 83.3789 21.0869C83.0361 21.4584 82.6075 21.6012 82.0932 21.6012C81.6075 21.6012 81.1789 21.4298 80.8075 21.0869C80.4646 20.7441 80.2932 20.3155 80.2932 19.8012C80.2932 19.2869 80.4646 18.8869 80.8075 18.5441C81.1789 18.2012 81.5789 18.0298 82.0932 18.0298Z" fill="#FFDF54"/>
<path d="M7.09983 25.7142V18.1999H0.185547L9.44269 2.34277V9.88563H16.2141L7.09983 25.7142Z" fill="#FFDF54"/>
</svg>
